<?xml version="1.0" encoding="utf-8"?>
<!-- Generator: Adobe Illustrator 19.0.0, SVG Export Plug-In . SVG Version: 6.00 Build 0)  -->
<svg version="1.1" id="Слой_1" xmlns="http://www.w3.org/2000/svg" xmlns:xlink="http://www.w3.org/1999/xlink" x="0px" y="0px"
	 viewBox="0 0 158.0253906 516.3046875" style="enable-background:new 0 0 158.0253906 516.3046875;" xml:space="preserve">
<style type="text/css">
	.st0{fill:#47A8BF;}
</style>
<g id="XMLID_1_">
	<path id="XMLID_16_" class="st0" d="M50.1660156,423.421875h13.5v30.375
		c-0.7963867,1.96875-1.1953125,4.1728516-1.1953125,6.609375c0,2.2973633,0.3989258,4.359375,1.1953125,6.1875v26.5078125
		c-2.7177734-1.2182617-5.2260742-2.7177734-7.5234375-4.5c-7.59375-5.8115234-11.390625-13.3349609-11.390625-22.5703125
		c0-4.921875,1.0317383-9.3164063,3.09375-13.1835938c2.0634766-3.8671875,5.0625-7.0664063,9-9.5976563H20.2128906v-9.421875
		h29.953125V423.421875z M81.5253906,508.7109375v7.5234375h-2.7421875l-0.0703125-97.9453125h2.7421875V456.46875
		l1.6171875-41.484375l7.59375,0.9140625l-3.65625,93.515625L81.5253906,508.7109375z M95.5878906,418.2890625l0.0703125,97.9453125
		h-2.7421875l-0.0703125-97.9453125H95.5878906z M104.6582031,494.3671875c-1.828125,0.703125-3.7265625,1.265625-5.6953125,1.6875
		V474.609375c1.40625-0.5625,2.6489258-1.2412109,3.7265625-2.0390625c4.078125-2.9057617,6.1171875-7.1015625,6.1171875-12.5859375
		c0-5.4370117-2.0146484-9.5854492-6.046875-12.4453125c-1.125-0.7963867-2.390625-1.4765625-3.796875-2.0390625v-22.078125
		h24.8203125v19.40625h-10.3359375c4.4541016,2.953125,7.7236328,6.2700195,9.8085938,9.9492188
		c2.0849609,3.6806641,3.1289063,8.0048828,3.1289063,12.9726563c0,9.421875-3.7265625,17.0400391-11.1796875,22.8515625
		c-1.6401367,1.265625-3.3979492,2.4150391-5.2734375,3.4453125v24.2578125h-5.2734375V494.3671875z"/>
	<path id="XMLID_21_" class="st0" d="M38.8457031,404.7890625h-18.421875V384.328125h18.421875V404.7890625z
		 M57.4082031,404.7890625H47.3535156V384.328125h12.234375C58.7441406,391.8759766,58.0180664,398.6962891,57.4082031,404.7890625z
		 M59.4472656,395.015625l0.5625-0.5625h0.84375v0.28125l-0.84375,1.40625h-0.28125L59.4472656,395.015625z M87.0097656,384.328125
		v0.84375h0.5625v0.84375h-0.5625c0,0.984375-0.5625,1.6416016-1.6875,1.96875v0.84375l2.8125,0.28125v0.5625l-3.375,0.5625
		h-0.84375l-0.28125,1.96875h2.53125l0.28125-0.28125v0.28125h0.5625v0.5625c-0.7490234,0-1.125,0.3759766-1.125,1.125
		l-0.28125-0.28125l-2.53125,2.25v1.6875l-2.53125,0.5625l-0.28125-0.28125h-0.28125
		c0.0947266-1.6875,0.3759766-2.53125,0.84375-2.53125c-0.1865234-0.7490234-0.6557617-1.125-1.40625-1.125v-0.84375
		l0.28125,0.28125c0.84375-0.3745117,1.3129883-0.7490234,1.40625-1.125h0.28125l0.28125,0.28125h1.125l0.28125-0.28125
		l-0.84375-1.125l-1.125,0.84375v-1.40625h1.6875l0.5625-0.5625v-0.28125l-0.84375-0.28125l-0.28125,0.28125v-0.5625
		l-0.28125,0.28125l-1.40625-0.5625v-0.5625l0.5625-0.84375v-0.28125c-1.265625,0-1.9213867,0.3759766-1.96875,1.125
		l-0.28125-0.28125h-0.28125l-0.28125,0.28125v-0.5625h-0.84375l-1.125,1.6875v1.40625l-1.96875-0.28125h-0.5625l-1.40625,0.28125
		v-0.28125l-0.28125-0.28125v-0.84375l1.125-0.28125v-0.28125h-0.28125l-0.84375,0.28125v-0.28125h-0.28125l-0.28125,0.28125
		l-3.65625,4.21875c-1.125,0-1.6875,0.1879883-1.6875,0.5625v0.28125l0.5625,0.5625h0.28125
		c0.3759766,0,0.5625-0.28125,0.5625-0.84375h0.84375c-0.140625,1.5009766-0.421875,2.25-0.84375,2.25l0.28125,1.40625h0.84375
		l0.28125-0.28125v1.6875l-1.96875-0.28125h-1.40625l-0.28125,0.28125c-0.3271484-0.5625-0.703125-0.84375-1.125-0.84375v-0.5625
		h0.5625l0.84375-1.125l-0.28125-1.40625v-1.125l0.5625-0.84375c-0.421875-0.7963867-0.8896484-1.265625-1.40625-1.40625v0.28125
		l-0.28125-0.28125c-0.84375,0.703125-1.6875,1.0791016-2.53125,1.125h-0.28125l-0.28125-0.28125v0.28125l-1.40625-0.5625v-1.96875
		l1.40625-0.5625v0.28125l0.28125-0.28125l0.28125,0.28125l0.84375-0.28125v-0.28125l-0.84375-0.28125v0.28125l-0.28125-0.28125
		l-0.28125,0.28125l-0.28125-0.28125h-0.28125l-0.28125,0.28125v-1.40625l0.28125,0.28125l0.84375-0.28125v-0.84375h-1.125v-0.84375
		h0.84375l1.96875-0.5625v-0.28125l-0.84375-0.28125v0.28125l-0.28125-0.28125l-0.28125,0.28125l-0.28125-0.28125l-1.125,0.5625
		v-1.6875H87.0097656z M63.1035156,399.796875l1.40625-0.28125v0.84375l-0.5625,0.5625h-0.28125l-0.5625-0.5625V399.796875z
		 M63.9472656,410.765625v-0.28125l-0.28125-0.28125l0.28125-0.84375v-0.28125l-0.28125-0.28125l0.5625-0.84375
		c1.3129883,0,1.96875-0.28125,1.96875-0.84375v-0.28125h-1.6875l-0.28125,0.28125v-1.6875
		c0-0.421875,1.0317383-0.703125,3.09375-0.84375v0.5625l-0.5625,0.84375v3.375h-0.84375c0-0.5625-0.1865234-0.84375-0.5625-0.84375
		h-0.28125l-0.84375,0.5625c0,0.421875,0.7504883,0.703125,2.25,0.84375l-0.28125,1.6875h-0.5625l-1.96875,0.28125
		L63.9472656,410.765625z M64.7910156,401.765625l3.65625,0.5625v1.6875l-0.28125-0.28125l-2.25,0.5625h-0.84375l-0.84375-0.5625
		L64.7910156,401.765625z M65.6347656,403.734375h0.5625l0.28125-0.28125l-0.5625-0.5625h-0.5625l-0.28125,0.28125
		L65.6347656,403.734375z M66.4785156,398.109375l0.5625-0.5625l-0.5625-0.5625l-0.5625,0.5625L66.4785156,398.109375z
		 M67.0410156,396.421875h0.5625l-0.5625-0.5625h-0.5625L67.0410156,396.421875z M67.0410156,369.984375l0.28125,0.28125h0.28125
		l0.28125-0.28125v0.5625l-0.84375,0.28125V369.984375z M70.1347656,408.796875h0.84375
		c0.2353516-0.9370117,0.6098633-1.40625,1.125-1.40625l0.28125-0.28125c0-0.3745117-0.28125-0.5625-0.84375-0.5625v-1.125
		l0.5625-0.5625l-0.28125-0.84375l0.28125-1.125v-0.84375h1.96875v-0.5625l-1.96875,0.28125v-1.40625
		c0-0.5625,1.0317383-0.9370117,3.09375-1.125c-0.2338867,3.375-0.703125,5.0625-1.40625,5.0625l0.84375,1.125v0.28125
		l-0.84375,1.40625l0.28125,1.125v1.40625l-1.96875-0.28125h-0.5625l-1.40625,0.28125V408.796875z M71.5410156,397.828125
		c0.7978516,0,1.265625-0.4677734,1.40625-1.40625l-0.28125-0.28125l0.5625-0.84375v-0.5625l-0.28125-0.28125h0.28125v-0.5625
		h0.28125l2.53125,1.125h0.28125l0.28125-0.28125h0.28125v1.96875h-0.84375c0-0.5625-0.1865234-0.84375-0.5625-0.84375
		c-1.0302734,0-1.6875,0.3759766-1.96875,1.125v0.28125l0.5625,0.5625h0.28125l0.5625-0.5625v-0.28125l-0.28125-0.28125
		l0.28125-0.28125c0.28125,0,0.5625,0.3759766,0.84375,1.125l-0.5625,0.84375c-1.2182617,0-2.0620117,0.1879883-2.53125,0.5625
		c0-0.3745117-0.3745117-0.5625-1.125-0.5625V397.828125z M73.5097656,403.453125v-0.5625h-0.28125l-0.5625,0.5625H73.5097656z
		 M73.5097656,400.921875h0.5625l0.28125-0.28125l-0.5625-0.5625h-0.5625l-0.28125,0.28125L73.5097656,400.921875z
		 M75.7597656,389.953125v-0.5625h-1.125v0.5625H75.7597656z M78.0097656,404.296875l0.28125-0.28125
		c1.828125,0,3.0478516-0.28125,3.65625-0.84375v0.84375h0.84375l0.28125-0.28125v0.28125
		c0.8911133-0.5151367,2.390625-0.8896484,4.5-1.125v0.28125l0.84375-0.28125v-0.28125h-0.5625v-0.5625l1.125-0.28125v-0.5625
		l-1.40625-0.28125v0.28125l-1.40625-0.28125v-0.5625l0.84375-0.28125v0.28125l0.84375-0.28125v-0.28125l-1.6875-0.5625v-0.5625
		l0.28125,0.28125l0.28125-0.28125l0.28125,0.28125l0.28125-0.28125l0.28125,0.28125l1.6875-0.5625l0.28125,0.28125h0.5625v-0.84375
		h0.28125l0.5625,0.5625v2.53125l0.84375,0.28125v-0.28125l0.5625-0.5625l1.6875,1.125l0.84375-0.5625
		c0,0.7504883,0.1879883,1.125,0.5625,1.125l0.5625-0.5625v-1.125l-1.40625,0.28125l-0.28125-0.84375l0.28125-1.125h1.6875
		l0.28125-0.28125l0.84375,0.5625v-0.28125l0.28125,0.28125l1.125-0.5625v0.28125l0.28125-0.28125h0.28125l0.28125,0.28125h0.5625
		v-0.5625l-1.125-0.28125v-0.5625l0.28125,0.28125l1.40625-0.5625v-0.5625h-1.125c0-0.5625-0.1865234-0.84375-0.5625-0.84375
		v-0.5625h0.5625v-0.84375l-0.5625-2.53125h-0.5625c0,0.7504883-0.1865234,1.125-0.5625,1.125l-0.5625-0.5625l-1.6875,0.5625
		v-0.28125l0.28125-1.40625l-0.28125-0.28125l0.5625-0.5625c0.3759766,0,0.5625,0.3759766,0.5625,1.125h1.125l0.28125-0.84375
		v-0.28125c-1.3115234,0-1.96875-0.28125-1.96875-0.84375v-0.84375l0.5625-0.84375c0-0.3271484-0.421875-1.4521484-1.265625-3.375
		h0.7734375c0.5625,1.125,1.1953125,2.3447266,1.8984375,3.65625h0.28125l0.28125-0.28125l0.5625,0.5625v0.5625l-0.5625,0.5625
		l1.6875,3.9375c0.8911133,0,1.828125-0.4677734,2.8125-1.40625h0.28125v0.84375l1.40625-0.5625v0.28125h0.5625v1.125
		l-0.28125,1.96875h0.28125l0.28125,0.28125l-0.5625,1.6875l0.28125,1.125v3.65625c0.7504883,0,1.125,0.6572266,1.125,1.96875
		h0.28125c0.3759766,0,0.5625-0.5625,0.5625-1.6875h1.40625l0.84375-0.84375h-0.5625l-1.40625,0.28125
		c0.140625-1.4995117,0.5166016-2.25,1.125-2.25c0,0.7504883,0.1879883,1.125,0.5625,1.125l1.125-0.84375v0.5625l-0.5625,1.96875
		c0,1.3129883-0.6557617,1.96875-1.96875,1.96875v0.2109375h-30.09375V404.296875z M79.4160156,412.171875
		c0.3759766,0,0.5625-0.3745117,0.5625-1.125h0.84375v1.40625l-1.96875,0.28125v0.5625l0.28125,0.28125l0.28125-0.28125
		l1.6875,0.5625l1.125-0.28125v-0.5625h3.375v-0.28125l-2.8125-0.5625v-0.5625h2.8125v-0.28125l-1.40625-0.5625l-0.28125,0.28125
		c0-0.5625-0.1865234-0.84375-0.5625-0.84375v-0.5625l0.28125,0.28125l0.84375-0.28125v-0.84375
		c-2.25,0-3.375,0.4692383-3.375,1.40625l-2.53125,0.84375C78.8535156,411.7973633,79.1347656,412.171875,79.4160156,412.171875z
		 M78.8535156,398.109375c1.40625,0,2.1567383,0.4692383,2.25,1.40625l1.125-1.125h0.28125l0.28125,0.28125l-0.28125,1.96875
		h-0.5625l-0.5625-0.5625l-1.40625,0.5625c0-0.5625-0.3745117-0.84375-1.125-0.84375V398.109375z M79.9785156,390.796875h0.84375
		l-0.5625,0.5625h-0.28125V390.796875z M80.5410156,425.671875l7.875,0.5625l2.25-1.40625l-0.84375-0.28125l-0.84375,0.28125
		l-0.5625-0.84375l-0.28125,0.28125l-1.125-0.28125c-1.6875,0-2.53125-0.3759766-2.53125-1.125h-0.84375l-0.28125,0.28125
		l-1.6875-1.40625v-0.28125l2.25,0.84375v-0.28125l0.28125,0.28125l0.28125-0.28125l0.28125,0.28125l1.125-0.5625v0.28125h0.28125
		l0.28125-0.28125v0.5625l-1.125,0.28125v0.28125h2.8125v-0.28125l-0.28125-0.28125v-0.28125l1.40625,0.28125l0.28125-1.125h2.25
		l1.125-0.84375h0.84375l0.28125,0.28125l0.28125-0.28125h1.125l0.28125,0.28125v-0.28125l0.28125,0.28125l1.96875-1.125
		l-0.28125-0.84375c0.0947266-1.3129883,1.0317383-1.96875,2.8125-1.96875l-0.5625,2.8125l0.28125,0.28125l3.65625-0.84375
		c0.5625-1.5009766,1.5009766-2.25,2.8125-2.25l0.28125,0.28125l-0.28125,1.40625v0.28125l6.75-0.84375
		c0,1.0302734-0.3745117,2.25-1.125,3.65625v1.40625h-0.5625v1.96875h-0.5625c0,0.7490234-0.28125,1.5927734-0.84375,2.53125
		h0.28125l-0.5625,0.84375v1.40625h-0.5625l-0.28125,1.40625l-0.28125,0.28125c-0.1865234,1.4995117-0.5625,2.25-1.125,2.25
		l0.28125,0.28125c0,1.8740234-1.4995117,3.2802734-4.5,4.21875v-0.28125l-0.28125,0.28125l-0.28125-0.28125l-1.125,0.5625
		c0-0.5625-0.28125-0.84375-0.84375-0.84375l-0.28125,0.28125v-0.5625l0.84375-0.28125v0.28125l0.28125-0.28125l0.28125,0.28125
		l1.40625-0.5625v-0.28125l-0.28125-0.28125l-1.40625,0.5625l-1.6875-0.84375l0.5625-0.5625l-0.5625-0.84375
		c0.84375-1.5009766,1.7822266-2.25,2.8125-2.25v-0.5625l-1.125,0.28125l-1.125-0.28125l-2.53125,1.6875l-0.28125-0.28125h-0.28125
		l-0.28125,0.28125c0-0.5625-0.28125-0.84375-0.84375-0.84375v0.28125l-2.53125-1.125v-0.28125l1.125-0.28125v-0.5625h-0.5625
		v-0.28125l1.40625-1.6875v-0.28125c-0.84375,0-2.4365234,0.9370117-4.78125,2.8125v-0.5625h-0.84375
		c0,0.4677734-0.6557617,0.9370117-1.96875,1.40625v-0.28125h-0.28125l-0.28125,0.28125v-0.5625h0.5625v-0.28125l-0.84375-0.28125
		l-0.84375,0.5625v-0.28125h-0.28125l-0.28125,0.28125v-0.5625l1.125-0.28125v-0.28125h-0.5625
		c0-0.7504883-0.28125-1.125-0.84375-1.125v0.28125l-1.125-0.5625v0.28125l-0.28125-0.28125l-0.28125,0.28125l-0.28125-0.28125
		l-1.125,0.5625v-0.28125h-0.5625v-1.40625h0.5625v-0.28125h-0.28125l-0.84375,0.28125v-0.28125h-0.28125l-0.28125,0.28125v-0.5625
		l1.125-0.28125v-0.28125h-0.28125l-1.40625,0.5625V425.671875z M81.9472656,396.984375v-0.5625h-0.84375v0.5625H81.9472656z
		 M82.2285156,436.359375l1.125-1.125l3.09375,0.84375v1.96875l-0.28125-0.28125h-0.28125l-0.28125,0.28125
		c0-0.5625-0.28125-0.84375-0.84375-0.84375l-0.84375,0.5625c0-0.5625-0.28125-0.84375-0.84375-0.84375v0.28125l-0.84375-0.28125
		V436.359375z M95.5878906,384.328125c-0.7963867-1.828125-1.96875-4.359375-3.515625-7.59375l-0.28125-0.28125l-0.28125,0.28125
		h-0.5625c0,1.125-0.3745117,1.6875-1.125,1.6875c-1.0302734,1.5009766-1.7807617,2.25-2.25,2.25v3.375h-0.5625v0.28125H95.5878906z
		 M89.5410156,383.765625h0.28125c0,0.6098633,0.9384766,1.1723633,2.8125,1.6875v0.5625l-0.28125-0.28125l-1.125,0.5625
		c-0.703125-0.7490234-1.265625-1.125-1.6875-1.125V383.765625z M89.5410156,396.703125h0.28125v1.125h-0.28125V396.703125z
		 M91.7910156,422.578125v-0.28125h0.5625l-0.5625-0.5625h-1.125L91.7910156,422.578125z M96.2910156,425.390625v-0.84375
		c-2.8125,0.2338867-4.21875,0.703125-4.21875,1.40625h-0.28125l-0.28125-0.28125v0.5625L96.2910156,425.390625z
		 M94.6035156,421.734375v-0.28125l-0.84375-0.28125v0.28125h-0.5625v0.5625L94.6035156,421.734375z M95.1660156,394.453125
		c0-0.6083984,1.0317383-1.0776367,3.09375-1.40625v1.6875l-0.84375,0.84375h-0.5625l-0.5625-0.5625h-0.28125l-0.28125,0.28125
		h-0.5625V394.453125z M95.7285156,378.984375l0.84375-0.28125c1.8754883,1.0317383,2.8125,1.6875,2.8125,1.96875v0.28125
		l-1.96875,0.5625v-0.28125h-0.28125l-0.28125,0.28125c0-1.3115234-0.3745117-1.96875-1.125-1.96875V378.984375z
		 M97.1347656,402.046875l0.28125-0.28125l0.28125,0.28125l0.28125-0.28125l0.28125,0.28125l0.84375-0.28125v-0.28125
		l-1.96875-1.125l-0.5625,0.5625L97.1347656,402.046875z M99.1035156,418.359375h0.28125l0.5625-0.5625h-1.40625
		L99.1035156,418.359375z M99.1035156,382.640625l1.125,0.5625v-0.28125c0.9384766,0.421875,1.40625,0.8911133,1.40625,1.40625
		h0.5625v0.84375l-0.28125-0.28125h-0.28125l-0.28125,0.28125c-0.140625-0.84375-0.7963867-1.4995117-1.96875-1.96875
		l-0.28125,0.28125V382.640625z M101.6347656,436.078125l0.5625-0.5625v-0.28125h-0.28125l-0.5625,0.5625v0.28125H101.6347656z
		 M105.0097656,386.296875v0.5625c0.9384766,0.140625,1.40625,0.421875,1.40625,0.84375
		c-0.0932617,0.5625-0.7490234,0.84375-1.96875,0.84375v0.5625c0.7504883,0,1.3129883,0.3759766,1.6875,1.125v0.28125
		l-1.6875,1.6875l-1.40625-1.40625v-0.28125l0.84375-1.40625h-0.28125c0-1.8740234,0.3759766-2.8125,1.125-2.8125l-0.5625-0.84375
		v-0.5625l0.5625-0.5625h2.53125C106.9326172,385.6411133,106.1821289,386.296875,105.0097656,386.296875z M104.4472656,391.078125
		l0.84375-0.5625l-0.5625-0.5625l-0.84375,0.5625L104.4472656,391.078125z M105.8535156,431.859375
		c0-0.5625,0.1879883-0.84375,0.5625-0.84375v-0.28125h-0.5625v-0.84375h0.5625v-0.28125h-0.28125
		c-1.40625,0-2.1552734,0.28125-2.25,0.84375v1.6875L105.8535156,431.859375z M106.1347656,418.078125v-0.5625h-0.5625
		l-0.5625,0.5625H106.1347656z M106.1347656,382.640625h0.84375l0.28125-0.28125l-0.5625-0.5625h-0.84375l-0.28125,0.28125
		L106.1347656,382.640625z M107.5410156,398.671875c0.7504883,0,1.125-0.3745117,1.125-1.125h0.84375
		c0,0.7504883,0.1879883,1.125,0.5625,1.125l0.5625-0.5625v-0.28125l-0.28125-0.28125h0.28125l0.28125-0.28125h0.28125v1.6875
		l-2.8125,0.5625l-0.84375-0.28125V398.671875z M108.3847656,406.265625l0.28125-0.28125v-0.28125l-0.28125-0.28125l-0.5625,0.5625
		v0.28125H108.3847656z M108.1035156,404.7890625v0.0703125l1.6875,0.5625l1.6875-0.5625
		c2.2041016,0,3.515625,0.84375,3.9375,2.53125h0.28125c0.4692383,0,0.8208008-0.8666992,1.0546875-2.6015625H108.1035156z
		 M109.5097656,408.234375h0.28125l0.28125-0.28125v1.125l0.5625,0.5625h0.84375v-0.84375l1.40625,1.125h0.84375v-0.5625h0.28125
		l0.28125,0.28125h0.5625l0.5625-0.5625v-0.5625c0-1.7333984-1.0302734-2.7651367-3.09375-3.09375h-1.125
		c-1.0302734,0-1.7807617,0.5625-2.25,1.6875v0.28125L109.5097656,408.234375z M109.2285156,389.671875l0.28125-0.28125
		c1.125,0,1.6875,0.3759766,1.6875,1.125h0.84375l0.28125-0.84375l-0.28125-0.28125v-0.28125l0.28125,0.28125h0.28125
		l0.28125-0.28125v0.5625l2.25-0.84375l1.96875,0.28125l2.53125-0.28125v1.125l-1.40625,0.5625l-0.84375-0.28125
		c0,0.3759766-0.6557617,0.5625-1.96875,0.5625v-0.5625l-2.53125,0.5625c0,0.7504883-0.28125,1.125-0.84375,1.125l-0.5625-0.5625
		h-0.28125l-0.5625,0.5625l-1.40625-0.84375V389.671875z M110.9160156,394.453125c-0.9370117,0-1.40625-0.28125-1.40625-0.84375
		c0.3759766-0.84375,0.7504883-1.3115234,1.125-1.40625h0.28125l1.40625,0.28125v1.125
		c-0.0932617,0.3759766-0.5625,0.7504883-1.40625,1.125V394.453125z M110.9160156,393.890625l0.5625-0.5625l-0.5625-0.5625
		l-0.5625,0.5625L110.9160156,393.890625z M112.8847656,407.109375v1.6875h-0.84375
		C112.2290039,407.671875,112.5102539,407.109375,112.8847656,407.109375z M116.8222656,404.015625v-0.28125h-0.5625
		l-0.28125,0.28125c0-0.5625-0.3745117-0.84375-1.125-0.84375v-0.5625h0.28125l1.40625-0.84375v-0.28125l-0.84375-0.28125v0.28125
		l-0.84375-0.28125v-1.125l1.6875,0.84375v-0.28125h0.28125l0.28125,0.28125h0.84375l1.125-4.21875
		c0.9384766-3.0463867,1.8051758-7.171875,2.6015625-12.375h14.34375c6.8432617,0,11.7177734,1.9228516,14.625,5.765625
		c2.9057617,3.8442383,4.359375,10.4306641,4.359375,19.7578125v3.8671875h-17.0859375v-4.0078125
		c0-1.7333984-0.4111328-2.9882813-1.2304688-3.7617188c-0.8208008-0.7734375-2.1445313-1.1601563-3.9726563-1.1601563h-15.9609375
		C116.7519531,404.5551758,116.7763672,404.296875,116.8222656,404.015625z M115.9785156,392.203125l0.28125,0.28125h0.28125
		l0.28125-0.28125h0.28125l1.96875,0.5625v0.84375l-1.6875-0.5625h-1.125l-0.28125,0.28125V392.203125z M118.5097656,440.578125
		h0.5625l0.84375-0.84375v-0.5625h-0.84375l-1.125,0.84375L118.5097656,440.578125z M118.5097656,354.515625h0.84375v0.84375
		h-0.84375V354.515625z M118.5097656,358.171875l0.28125-0.28125l0.5625,0.5625v0.5625h-0.84375V358.171875z"/>
	<path id="XMLID_75_" class="st0" d="M29.2128906,367.8046875h2.1796875v4.078125h-2.1796875V367.8046875z M53.6816406,368.6484375
		v16.2421875h-2.671875v-18.7734375l-2.1796875,0.84375h-0.9140625c-2.2026367-4.78125-3.3046875-10.5927734-3.3046875-17.4375
		c0-10.6875,1.8525391-18.8789063,5.5546875-24.5742188c3.7036133-5.6953125,9.0473633-8.5429688,16.03125-8.5429688h43.453125
		c3.1884766,0,5.5668945-0.3271484,7.1367188-0.984375c1.5712891-0.6557617,2.7543945-1.7578125,3.5507813-3.3046875h3.4453125
		v21.3046875c-1.3115234,0.703125-2.7651367,1.2426758-4.359375,1.6171875
		c-1.5927734,0.3759766-3.3046875,0.5869141-5.1328125,0.6328125c3.9848633,2.5786133,7.0205078,5.9536133,9.1054688,10.125
		c2.0849609,4.1728516,3.1289063,9.0244141,3.1289063,14.5546875c0,2.0634766-0.1650391,3.9848633-0.4921875,5.765625h-0.984375
		l-1.4765625,0.5625c-1.0776367-1.4995117-1.7333984-3.2573242-1.96875-5.2734375h-2.0390625v4.7109375h-1.0546875V361.40625
		l1.0546875-1.3359375h-1.0546875v-2.7421875h-1.96875v8.7890625h-1.0546875v-14.203125l-2.953125-4.0078125h-0.984375v4.0078125
		h0.984375l0.984375-1.3359375v4.078125l-4.0078125,2.671875v-6.75h-1.96875V366.1875l-0.984375,0.3515625v-17.296875h-2.0390625
		v17.296875l-1.1953125-0.421875h-2.1796875l-2.1796875,0.84375l-2.1796875-0.84375h-2.1796875l-2.1796875,0.84375h-2.1796875
		l-2.1796875-0.84375v-0.84375l-8.296875,1.0546875c-0.7963867-2.5771484-1.4291992-5.484375-1.8984375-8.71875
		c-0.3271484-2.109375-0.703125-4.8745117-1.125-8.296875c-1.125-8.6713867-3.6318359-13.0078125-7.5234375-13.0078125
		c-3.09375,0-5.3085938,0.9614258-6.6445313,2.8828125c-1.3359375,1.9228516-2.0039063,5.1328125-2.0039063,9.6328125
		c0,4.1254883,0.8208008,7.2895508,2.4609375,9.4921875c1.6416016,2.2041016,3.9848633,3.3046875,7.03125,3.3046875h1.125v4.5
		h-2.7421875v2.53125h-2.1796875v-2.53125h-2.4609375v9.5625c-0.703125,0.1865234-1.4291992,0.3745117-2.1796875,0.5625v-7.59375
		h-1.8984375v-2.53125h-4.359375v2.53125H53.6816406z M59.7285156,377.71875h2.1796875v1.8984375
		c-0.7490234-0.2353516-1.4765625-0.4921875-2.1796875-0.7734375V377.71875z M66.2675781,372.7265625h2.1796875v5.765625h-2.1796875
		V372.7265625z M72.8066406,381.0234375h2.1796875v3.3046875h-2.1796875V381.0234375z M87.2207031,368.71875h2.1796875v6.609375
		h-2.1796875V368.71875z M100.2988281,370.3359375h2.1796875v4.1484375h-2.1796875V370.3359375z M102.7597656,379.546875h2.1796875
		v13.21875h-2.1796875V379.546875z M106.8378906,374.484375h2.1796875v4.921875h-2.1796875V374.484375z M109.5097656,361.40625
		h0.984375v4.7109375h-0.984375V361.40625z M112.0410156,382.1484375v1.3359375h4.359375V380.25
		C115.0888672,380.9990234,113.6352539,381.6318359,112.0410156,382.1484375z M112.0410156,385.171875v12.375h4.359375v-12.375
		H112.0410156z M124.5566406,371.109375h2.671875v-4.9921875h-1.1953125
		C125.7045898,367.8994141,125.2124023,369.5625,124.5566406,371.109375z"/>
	<path id="XMLID_89_" class="st0" d="M2.7050781,230.4140625h-0.984375V215.578125h0.984375V230.4140625z M9.8066406,245.1796875
		v14.8359375h-0.984375v3.7265625H7.7675781v-3.7265625h-0.984375v3.7265625h-0.984375v3.65625h0.984375V271.125h-0.984375
		v3.7265625H3.7597656v29.6015625H1.7207031v-14.8359375h0.984375v-14.765625h-0.984375v-18.5625h0.984375v3.7265625h1.0546875
		v-3.7265625h0.984375v3.7265625h1.0546875v-3.7265625H4.7441406v-3.65625h1.0546875V248.90625H4.7441406v3.7265625h-0.984375
		V248.90625H2.7050781v3.7265625h-0.984375v-7.453125h0.984375v-14.765625h1.0546875v14.765625h0.984375v-14.765625h1.0546875
		v14.765625H9.8066406z M3.7597656,252.6328125v3.65625H2.7050781v-3.65625H3.7597656z M4.7441406,230.4140625h-0.984375V215.578125
		h0.984375V230.4140625z M18.8769531,266.2734375v-2.53125h-0.84375v-1.96875h-0.140625v-1.7578125h-0.84375v3.7265625h-1.0546875
		v3.65625h1.0546875V271.125h-1.0546875v3.7265625h-1.96875v29.6015625h-2.0390625v-14.8359375h0.984375v-14.765625h-0.984375
		v-18.5625h0.984375v3.7265625h1.0546875v-3.7265625h0.984375v-3.65625h-0.984375V248.90625h-1.0546875v3.7265625h-0.984375
		v-7.453125h0.984375v-14.765625h1.0546875v14.765625h0.984375v-14.765625h0.984375v14.765625h2.8828125v-11.109375h1.0546875
		v11.109375h0.140625v7.3125h0.84375v-18.421875h1.0546875v18.421875h4.0078125v18.421875h-0.984375V275.625h-1.0546875v-4.7109375
		h-0.984375V275.625h-0.984375v4.5h0.984375v4.640625h-0.984375v4.640625h-2.0390625v3.9375h0.140625v3.7265625h-0.140625v3.65625
		h0.140625v3.7265625h-0.140625v21.8671875h-2.0390625V307.828125h0.984375v-3.375h-3.8671875v-14.8359375h0.984375v3.7265625
		h2.8828125v-3.7265625h-0.84375V289.40625h-0.140625v-23.1328125H18.8769531z M15.0097656,252.6328125h0.984375V248.90625
		h-0.984375V252.6328125z M15.0097656,256.2890625v3.7265625h0.984375v-3.7265625H15.0097656z M19.9316406,226.6875h-1.0546875
		v7.3828125h-0.984375V226.6875h-1.8984375v-3.7265625h1.8984375v-3.65625h-1.8984375v-3.7265625h4.921875v18.4921875h-0.984375
		V226.6875z M18.8769531,300.7265625v-3.65625h-2.8828125v3.65625H18.8769531z M18.8769531,222.9609375h1.0546875v-3.65625
		h-1.0546875V222.9609375z M18.8769531,266.2734375v1.125h0.140625v-1.125H18.8769531z M19.9316406,261.7734375v-1.7578125
		h-0.9140625v1.7578125H19.9316406z M19.0175781,267.3984375v3.515625h0.9140625v-3.515625H19.0175781z M19.9316406,261.7734375
		v1.96875h0.140625v2.53125h0.84375v-4.5H19.9316406z M20.9160156,261.7734375h1.0546875v-4.640625h-1.0546875V261.7734375z
		 M20.9160156,266.2734375v4.640625h1.0546875v-4.640625H20.9160156z M30.1972656,297.0703125v3.7265625h1.0546875v3.65625
		h-1.0546875v21.8671875h-2.0390625V307.828125h0.984375v-3.375h-2.953125V289.6875h1.0546875v-14.8359375h0.9140625v-8.578125
		h0.0703125v-2.53125h0.984375v3.7265625h-0.0703125v3.4453125h1.0546875v-4.640625h0.0703125v-2.53125h0.9140625v-1.96875
		h-0.984375v-4.640625h-1.0546875v4.640625h-0.984375v-9.28125h0.984375v-18.421875h1.0546875v18.421875h0.984375v-18.421875
		h0.984375v18.421875h4.078125v18.421875h-1.0546875V275.625h-0.984375v-4.7109375h-0.984375V275.625h-1.0546875v4.5h1.0546875
		v4.640625h-1.0546875v4.640625h-1.8984375v0.28125h-0.0703125v3.65625h1.0546875v3.7265625H30.1972656z M27.2441406,219.3046875
		v-3.7265625h4.0078125v3.7265625H27.2441406z M31.2519531,223.03125v3.65625h-4.0078125v-3.65625H31.2519531z M27.2441406,289.6875
		v3.65625h1.8984375v-3.9375h-0.9140625v0.28125H27.2441406z M29.1425781,300.796875v-3.7265625h-1.8984375v3.7265625H29.1425781z
		 M31.1816406,261.7734375h0.984375v-4.640625h-0.984375V261.7734375z M31.2519531,266.2734375v1.1953125h-0.0703125v3.4453125
		h0.984375v-4.640625H31.2519531z M36.2441406,312.46875v4.640625h-4.078125v4.5h4.078125v4.7109375h-5.0625V307.828125h0.984375
		v4.640625H36.2441406z M34.4160156,230.34375h0.4921875v14.8359375h-1.0546875v-14.765625h-0.421875v-0.984375h-1.265625v-4.640625
		h1.265625V220.21875h-1.265625v-4.640625h4.078125v0.0703125h0.2109375v14.765625h-0.984375v-0.984375h-1.0546875V230.34375z
		 M32.8691406,248.8359375v-3.65625h0.984375v3.65625H32.8691406z M35.1894531,280.125v4.640625h-0.984375V280.125H35.1894531z
		 M35.1894531,289.40625v18.421875h-0.984375V289.40625H35.1894531z M34.4160156,220.21875v4.5703125h1.0546875V220.21875
		H34.4160156z M36.2441406,275.625v4.5h-1.0546875v-4.5H36.2441406z M36.2441406,284.765625v4.640625h-1.0546875v-4.640625
		H36.2441406z M35.8925781,289.6171875h0.984375v14.765625h-0.984375V289.6171875z M36.8769531,267.3984375v-3.7265625h1.0546875
		v3.7265625H36.8769531z M38.4941406,289.6171875h0.421875v14.765625h-0.984375V289.6875h-0.4921875v-14.8359375h1.0546875
		V289.6171875z M39.4785156,263.7421875v3.7265625h-0.984375v-3.7265625H39.4785156z M39.4785156,271.1953125v3.65625h-0.984375
		v-3.65625H39.4785156z M46.1582031,229.4296875v0.9140625h-1.0546875v-0.9140625h-1.6875V226.6875h-2.3203125v-3.7265625h4.0078125
		V220.21875h-1.6875v-0.984375h-2.3203125v-3.65625h6.328125v4.640625h-1.265625v4.640625h1.265625v4.5703125H46.1582031z
		 M41.0957031,248.90625v-3.7265625h0.984375v3.7265625H41.0957031z M41.0957031,256.2890625V252.5625h0.984375v3.7265625
		H41.0957031z M44.4003906,300.7265625h0.703125v3.7265625h-0.703125v3.4453125h-0.984375v-3.4453125h-2.3203125v-3.7265625
		h2.3203125V297h-2.3203125v-3.65625h2.3203125v-3.9375h0.984375v3.9375h0.703125V297h-0.703125V300.7265625z
		 M42.0800781,245.1796875V230.34375h1.0546875v14.8359375H42.0800781z M47.4238281,312.46875v4.640625h-4.0078125V321.75h4.0078125
		v4.5703125h-5.0625v-18.421875h1.0546875v4.5703125H47.4238281z M43.1347656,248.90625v-3.7265625h0.984375v3.7265625H43.1347656z
		 M43.1347656,256.2890625V252.5625h0.984375v3.7265625H43.1347656z M44.1191406,245.1796875V230.34375h0.984375v14.8359375
		H44.1191406z M45.3847656,275.625v4.640625h-0.984375V275.625H45.3847656z M45.3847656,284.765625v4.640625h-0.984375v-4.640625
		H45.3847656z M46.4394531,289.40625v18.4921875h-1.0546875V289.40625H46.4394531z M47.4238281,275.625v4.640625h-0.984375V275.625
		H47.4238281z M47.4238281,284.765625v4.640625h-0.984375v-4.640625H47.4238281z M50.5878906,234.0703125h-0.984375v-18.421875
		h0.984375V234.0703125z M51.6425781,261.7734375v4.640625h-1.0546875v-4.640625H51.6425781z M52.6269531,234.0703125h-0.984375
		v-18.421875h0.984375V234.0703125z M60.3613281,227.3203125v3.09375h-0.984375v14.765625h0.984375v18.5625h-0.984375v-3.7265625
		h-1.0546875v3.7265625h-0.984375v3.65625h0.984375V271.125h1.0546875v-3.7265625h0.984375v7.453125h-0.984375v14.765625h-1.0546875
		v-14.765625h-0.984375v14.765625h-0.984375v-14.765625h-4.078125V260.015625h1.0546875v-3.7265625h0.984375v3.7265625h0.984375
		v-3.7265625h1.0546875v-3.65625h-1.0546875V248.90625h1.0546875v-3.7265625h1.96875v-17.859375h-1.0546875V223.59375h1.0546875
		v-3.65625h-1.0546875v-3.7265625h1.0546875v-0.6328125h2.0390625v0.6328125h1.96875v14.8359375h-0.984375v-3.7265625H60.3613281z
		 M52.2753906,248.90625v-3.7265625h1.0546875v3.7265625H52.2753906z M52.2753906,256.2890625v-3.65625h1.0546875v3.65625
		H52.2753906z M53.6113281,297.0703125h-1.3359375V293.34375h1.3359375v-3.9375h1.0546875v3.9375h1.6875v3.7265625h-1.6875v3.65625
		h1.6875v3.7265625h-1.6875v3.4453125h-1.0546875v-3.4453125h-1.3359375v-3.7265625h1.3359375V297.0703125z M53.3300781,245.1796875
		v-14.765625h0.984375v14.765625H53.3300781z M53.3300781,252.6328125V248.90625h0.984375v3.7265625H53.3300781z
		 M55.6503906,275.625v4.640625h-0.984375V275.625H55.6503906z M55.6503906,284.90625v4.5h-0.984375v-4.5H55.6503906z
		 M57.3378906,263.7421875v-3.7265625h-0.984375v3.7265625H57.3378906z M57.3378906,267.3984375h-0.984375V271.125h0.984375
		V267.3984375z M60.3613281,223.59375h0.984375v-3.65625h-0.984375V223.59375z M62.5410156,274.8515625V260.015625h0.984375
		v-3.7265625h1.0546875v3.7265625h0.984375v-3.7265625h0.984375v-3.65625h-0.984375V248.90625h0.984375v-3.7265625h2.0390625
		V215.578125h2.0390625v14.8359375h-0.984375v14.765625h0.984375v18.5625h-0.984375v-3.7265625h-1.0546875v3.7265625h-0.984375
		v-3.7265625h-1.0546875v3.7265625h1.0546875v3.65625h-1.0546875V271.125h1.0546875v-3.7265625h0.984375V271.125h1.0546875
		v-3.7265625h0.984375v7.453125h-0.984375v14.765625h-1.0546875v-14.765625h-0.984375v14.765625h-1.0546875v-14.765625H62.5410156z
		 M67.6035156,289.6171875h0.984375v14.8359375h-0.984375V289.6171875z M68.5878906,267.3984375v-3.65625h1.0546875v3.65625
		H68.5878906z M69.6425781,289.6171875h0.984375v14.8359375h-0.984375V289.6171875z M154.0175781,298.0546875h-76.359375V278.015625
		h9.0703125c-3.7021484-2.8583984-6.4794922-6.2333984-8.3320313-10.125
		c-1.8510742-3.8901367-2.7773438-8.2265625-2.7773438-13.0078125c0-8.4375,2.1918945-14.753418,6.5742188-18.9492188
		c4.3837891-4.1943359,10.980957-6.2929688,19.7929688-6.2929688h52.03125v20.4609375h-46.125
		c-5.484375,0-9.3974609,0.9262695-11.7421875,2.7773438c-2.3432617,1.8525391-3.515625,4.8637695-3.515625,9.0351563
		c0,4.8286133,1.4414063,8.6484375,4.3242188,11.4609375s6.8095703,4.21875,11.7773438,4.21875h45.28125V298.0546875z"/>
	<path id="XMLID_159_" class="st0" d="M44.8925781,164.25c-0.84375,0.4692383-1.6171875,0.984375-2.3203125,1.546875
		c-3.8427734,2.9072266-5.765625,7.0556641-5.765625,12.4453125c0,5.203125,1.9458008,9.2353516,5.8359375,12.09375
		c0.703125,0.5166016,1.4536133,0.984375,2.25,1.40625v21.9375c-5.6708984-1.4521484-10.546875-3.796875-14.625-7.03125
		c-7.3125-5.8588867-10.96875-13.7338867-10.96875-23.625c0-5.1557617,0.984375-9.550293,2.953125-13.1835938
		c1.96875-3.6318359,4.9692383-6.597168,9-8.8945313h-9.2109375v-19.40625h22.8515625V164.25z M56.2832031,207.140625
		c-0.28125-0.1865234-0.5380859-0.3745117-0.7734375-0.5625c-7.2651367-5.8115234-10.8984375-13.6635742-10.8984375-23.5546875
		c0-5.1557617,0.984375-9.550293,2.953125-13.1835938c1.96875-3.6318359,4.9692383-6.597168,9-8.8945313h-9.2109375v-19.40625
		h39.375l-0.28125,115.8046875h-5.2734375v-42.046875c-2.3432617-0.140625-4.5932617-0.3974609-6.75-0.7734375V251.15625h-18.140625
		V207.140625z M62.4003906,181.4765625c0.6572266,3.65625,2.5083008,6.609375,5.5546875,8.859375
		c3.2817383,2.4379883,7.6884766,3.8442383,13.21875,4.21875v-13.078125H62.4003906z M81.1738281,166.5703125V161.4375
		c-5.625,0.3759766-10.0776367,1.8051758-13.359375,4.2890625c-0.3271484,0.2353516-0.6557617,0.5166016-0.984375,0.84375
		H81.1738281z M92.0019531,141.5390625h26.71875c8.015625,0,14.1328125,0.7504883,18.3515625,2.25
		c4.21875,1.5009766,7.7573242,4.0551758,10.6171875,7.6640625c2.390625,3.09375,4.206543,7.0205078,5.4492188,11.7773438
		c1.2412109,4.7583008,1.8632813,10.1845703,1.8632813,16.2773438c0,10.2197266-2.0864258,18.2583008-6.2578125,24.1171875
		c-4.1728516,5.8603516-10.0317383,9.0244141-17.578125,9.4921875l-0.0703125-22.359375
		c2.5771484-0.6557617,4.5-2.0039063,5.765625-4.0429688s1.8984375-4.769043,1.8984375-8.1914063
		c0-6.3740234-1.3481445-10.828125-4.0429688-13.359375c-2.6962891-2.53125-7.6762695-3.796875-14.9414063-3.796875h-6.8203125
		c3.7036133,2.1567383,6.4335938,4.9570313,8.1914063,8.4023438s2.6367188,7.746582,2.6367188,12.9023438
		c0,9.8911133-3.5385742,17.8134766-10.6171875,23.765625c-4.4052734,3.7509766-9.7734375,6.328125-16.1015625,7.734375v43.2421875
		h-5.2734375L92.0019531,141.5390625z M97.0644531,163.4765625v28.96875c1.40625-0.6083984,2.671875-1.3359375,3.796875-2.1796875
		c3.8442383-2.8583984,5.765625-6.9609375,5.765625-12.3046875c0-5.3896484-1.9213867-9.5151367-5.765625-12.375
		C99.7363281,164.7895508,98.4707031,164.0864258,97.0644531,163.4765625z"/>
	<path id="XMLID_166_" class="st0" d="M75.4785156,51.3984375c3.09375-0.5151367,6.4228516-0.7734375,9.984375-0.7734375
		c12.7509766,0,22.7583008,3.4575195,30.0234375,10.3710938c7.2666016,6.9150391,10.8984375,16.3720703,10.8984375,28.3710938
		c0,12.0478516-3.6318359,21.515625-10.8984375,28.40625c-7.2651367,6.890625-17.2724609,10.3359375-30.0234375,10.3359375
		c-4.078125,0-7.875-0.3515625-11.390625-1.0546875l-0.28125,1.6875l0.28125,1.8984375l-0.5625,2.6015625l-1.40625,10.96875
		l-0.5625,3.4453125l0.28125,3.375v0.7734375l-0.28125,2.25l0.28125,0.421875v0.3515625l-0.28125,4.1484375v1.125L71.8222656,162
		l-0.28125,0.421875h-1.125V162l0.28125-1.8984375h-0.5625V157.5h-0.28125v3.796875l0.28125,1.4765625
		c-0.28125,1.4995117-1.0302734,2.25-2.25,2.25l-0.28125,1.546875h-0.28125c-0.3745117,0-0.5625-0.3759766-0.5625-1.125
		l-0.28125-0.421875h-0.28125v0.7734375l0.28125,1.8984375l-0.28125,0.421875h-0.28125
		c-0.9370117-2.0634766-1.40625-3.5859375-1.40625-4.5703125v-9.4921875l-0.28125-4.1484375l0.5625-2.671875l-0.28125-1.4765625
		l0.4921875-10.96875c0.0473633-0.4692383,0.0703125-0.984375,0.0703125-1.546875l0.28125-1.828125V129.09375l0.2109375-4.7109375
		c-3.796875-1.6401367-7.1474609-3.8427734-10.0546875-6.609375c-7.2651367-6.890625-10.8984375-16.3583984-10.8984375-28.40625
		c0-11.9990234,3.6333008-21.4682617,10.8984375-28.40625c3.1884766-2.9990234,6.9150391-5.3666992,11.1796875-7.1015625
		l-1.0546875-9.2109375v-0.703125l0.84375-6.046875l-0.5625-14.8359375l0.28125-1.125l-0.5625-6.8203125h0.28125l-0.28125-0.3515625
		v-3.0234375l0.28125-0.3515625c-0.5625-2.53125-0.84375-4.6865234-0.84375-6.46875c0-2.0620117,0.5625-3.7021484,1.6875-4.921875
		h1.125l0.5625,0.7734375l0.84375-0.421875l2.53125,1.546875l0.28125-0.3515625h0.84375
		c0.3759766,0,0.7504883,0.8681641,1.125,2.6015625l-0.28125,9.4921875c-0.7490234,0.421875-1.125,0.9140625-1.125,1.4765625
		h-0.5625c0-0.984375-0.1865234-1.4765625-0.5625-1.4765625c0,0.984375-0.5625,1.4765625-1.6875,1.4765625v0.7734375h-0.28125
		l0.5625,4.1484375l0.28125-0.3515625c1.125,0,1.6875,0.6328125,1.6875,1.8984375V21.9375h0.28125v-1.8984375l1.6875,0.421875
		v0.7734375l-0.28125,0.3515625l0.5625,6.046875l-0.28125,0.3515625v0.421875l0.28125,0.3515625l-0.28125,1.8984375v1.125
		l0.28125,1.8984375h-0.28125l0.28125,0.421875v0.703125L74.0722656,40.5L75.4785156,51.3984375z M65.7050781,100.546875
		c-0.2338867-4.9677734-0.6328125-9.2109375-1.1953125-12.7265625l-0.28125-7.5234375v-0.0703125
		c-1.5927734,2.53125-2.390625,5.5791016-2.390625,9.140625C61.8378906,93.9145508,63.1279297,97.6411133,65.7050781,100.546875z
		 M70.9082031,74.3203125c0.5166016,0.84375,1.3833008,1.4306641,2.6015625,1.7578125l0.5625,2.3203125
		c-0.7490234,0.2353516-1.125,0.984375-1.125,2.25v3.375c0,1.9228516,0.5625,3.3291016,1.6875,4.21875v2.25l1.125,9.0703125
		l-0.5625,2.671875h-0.28125l-0.28125-0.3515625h-0.28125l-0.28125,1.8984375v2.0390625
		c3.234375,1.0317383,7.03125,1.546875,11.390625,1.546875c7.59375,0,13.4541016-1.5576172,17.578125-4.6757813
		c4.1254883-3.1166992,6.1875-7.5585938,6.1875-13.3242188c0-5.6708984-2.0620117-10.0654297-6.1875-13.1835938
		c-4.1240234-3.1166992-9.984375-4.6757813-17.578125-4.6757813C79.5566406,71.5078125,74.7050781,72.4462891,70.9082031,74.3203125
		z"/>
</g>
</svg>
