<?xml version="1.0" encoding="utf-8"?>
<!-- Generator: Adobe Illustrator 19.0.0, SVG Export Plug-In . SVG Version: 6.00 Build 0)  -->
<svg version="1.1" id="Слой_1" xmlns="http://www.w3.org/2000/svg" xmlns:xlink="http://www.w3.org/1999/xlink" x="0px" y="0px"
	 viewBox="0 0 166.359375 419.9746094" style="enable-background:new 0 0 166.359375 419.9746094;" xml:space="preserve">
<style type="text/css">
	.st0{fill:#4F88C4;}
</style>
<g id="XMLID_1_">
	<path id="XMLID_3_" class="st0" d="M83.8125,303.2578125c3.09375-0.5151367,6.4228516-0.7734375,9.984375-0.7734375
		c12.7509766,0,22.7583008,3.4575195,30.0234375,10.3710938c7.2666016,6.9150391,10.8984375,16.3720703,10.8984375,28.3710938
		c0,12.0478516-3.6318359,21.515625-10.8984375,28.40625c-7.2651367,6.890625-17.2724609,10.3359375-30.0234375,10.3359375
		c-4.078125,0-7.875-0.3515625-11.390625-1.0546875l-0.28125,1.6875L82.40625,382.5l-0.5625,2.6015625l-1.40625,10.96875
		l-0.5625,3.4453125l0.28125,3.375v0.7734375l-0.28125,2.25l0.28125,0.421875V406.6875l-0.28125,4.1484375v1.125l0.28125,1.8984375
		L79.875,414.28125H78.75v-0.421875l0.28125-1.8984375h-0.5625v-2.6015625H78.1875v3.796875l0.28125,1.4765625
		c-0.28125,1.4995117-1.0302734,2.25-2.25,2.25l-0.28125,1.546875h-0.28125c-0.3745117,0-0.5625-0.3759766-0.5625-1.125
		l-0.28125-0.421875h-0.28125v0.7734375l0.28125,1.8984375l-0.28125,0.421875H74.25
		c-0.9370117-2.0634766-1.40625-3.5859375-1.40625-4.5703125v-9.4921875l-0.28125-4.1484375l0.5625-2.671875l-0.28125-1.4765625
		l0.4921875-10.96875c0.0473633-0.4692383,0.0703125-0.984375,0.0703125-1.546875l0.28125-1.828125v-2.3203125l0.2109375-4.7109375
		c-3.796875-1.6401367-7.1474609-3.8427734-10.0546875-6.609375c-7.2651367-6.890625-10.8984375-16.3583984-10.8984375-28.40625
		c0-11.9990234,3.6333008-21.4682617,10.8984375-28.40625c3.1884766-2.9990234,6.9150391-5.3666992,11.1796875-7.1015625
		l-1.0546875-9.2109375v-0.703125l0.84375-6.046875L74.25,274.921875l0.28125-1.125l-0.5625-6.8203125H74.25L73.96875,266.625
		v-3.0234375L74.25,263.25c-0.5625-2.53125-0.84375-4.6865234-0.84375-6.46875c0-2.0620117,0.5625-3.7021484,1.6875-4.921875h1.125
		l0.5625,0.7734375l0.84375-0.421875l2.53125,1.546875l0.28125-0.3515625h0.84375c0.3759766,0,0.7504883,0.8681641,1.125,2.6015625
		L82.125,265.5c-0.7490234,0.421875-1.125,0.9140625-1.125,1.4765625h-0.5625c0-0.984375-0.1865234-1.4765625-0.5625-1.4765625
		c0,0.984375-0.5625,1.4765625-1.6875,1.4765625V267.75h-0.28125l0.5625,4.1484375L78.75,271.546875
		c1.125,0,1.6875,0.6328125,1.6875,1.8984375v0.3515625h0.28125v-1.8984375l1.6875,0.421875v0.7734375l-0.28125,0.3515625
		l0.5625,6.046875l-0.28125,0.3515625v0.421875l0.28125,0.3515625l-0.28125,1.8984375v1.125l0.28125,1.8984375h-0.28125
		l0.28125,0.421875v0.703125l-0.28125,5.6953125L83.8125,303.2578125z M74.0390625,352.40625
		c-0.2338867-4.9677734-0.6328125-9.2109375-1.1953125-12.7265625L72.5625,332.15625v-0.0703125
		c-1.5927734,2.53125-2.390625,5.5791016-2.390625,9.140625C70.171875,345.7739258,71.4619141,349.5004883,74.0390625,352.40625z
		 M79.2421875,326.1796875c0.5166016,0.84375,1.3833008,1.4306641,2.6015625,1.7578125l0.5625,2.3203125
		c-0.7490234,0.2353516-1.125,0.984375-1.125,2.25v3.375c0,1.9228516,0.5625,3.3291016,1.6875,4.21875v2.25l1.125,9.0703125
		l-0.5625,2.671875H83.25l-0.28125-0.3515625H82.6875l-0.28125,1.8984375v2.0390625
		c3.234375,1.0317383,7.03125,1.546875,11.390625,1.546875c7.59375,0,13.4541016-1.5576172,17.578125-4.6757813
		c4.1254883-3.1166992,6.1875-7.5585938,6.1875-13.3242188c0-5.6708984-2.0620117-10.0654297-6.1875-13.1835938
		c-4.1240234-3.1166992-9.984375-4.6757813-17.578125-4.6757813
		C87.890625,323.3671875,83.0390625,324.3056641,79.2421875,326.1796875z"/>
	<path id="XMLID_7_" class="st0" d="M42.046875,299.0390625H0V189.421875h42.046875V299.0390625z M46.40625,189.421875h4.4296875
		L50.625,298.6875h-4.4296875L46.40625,189.421875z M54.703125,189.421875h4.078125v46.7578125
		c0.3286133-0.4677734,0.6572266-0.9370117,0.984375-1.40625c4.5473633-5.8115234,10.9458008-8.9052734,19.1953125-9.28125
		v19.8984375c-3.234375,0.140625-5.7412109,1.3710938-7.5234375,3.6914063
		c-1.7807617,2.3203125-2.671875,5.5439453-2.671875,9.6679688c0,3.8916016,0.5869141,6.7851563,1.7578125,8.6835938
		c1.1723633,1.8984375,2.9301758,2.8476563,5.2734375,2.8476563c3.0478516,0,5.7426758-5.0854492,8.0859375-15.2578125
		c0.5166016-2.3432617,0.9384766-4.1943359,1.265625-5.5546875c2.390625-10.1708984,5.2734375-17.1210938,8.6484375-20.8476563
		s8.1333008-5.5898438,14.2734375-5.5898438c3.0478516,0,5.8129883,0.3759766,8.296875,1.125v22.1484375
		c-1.265625-1.7807617-3.0234375-2.671875-5.2734375-2.671875c-3.4682617,0-6.0698242,4.078125-7.8046875,12.234375
		c-0.703125,3.3291016-1.3115234,5.9765625-1.828125,7.9453125c-2.53125,9.9384766-5.5302734,16.8398438-9,20.7070313
		c-3.4682617,3.8671875-8.15625,5.8007813-14.0625,5.8007813c-7.8276367,0-14.0380859-2.8354492-18.6328125-8.5078125
		c-0.3271484-0.421875-0.6557617-0.8666992-0.984375-1.3359375V298.96875h-4.078125V189.421875z M116.3671875,291.4453125
		c-2.53125,0.7504883-5.2963867,1.125-8.296875,1.125h-0.84375v-20.390625
		c3.8916016-0.1865234,6.7744141-1.5927734,8.6484375-4.21875c0.1879883-0.2338867,0.3515625-0.4677734,0.4921875-0.703125
		V291.4453125z"/>
	<path id="XMLID_12_" class="st0" d="M125.296875,202.78125c-0.4677734,0.421875-0.9599609,0.84375-1.4765625,1.265625
		c-7.2177734,6.328125-17.2265625,9.4921875-30.0234375,9.4921875c-12.7495117,0-22.7460938-3.222168-29.9882813-9.6679688
		c-7.2421875-6.4443359-10.8632813-15.315918-10.8632813-26.6132813c0-9.8896484,2.6259766-17.8349609,7.875-23.8359375
		c2.3447266-2.6245117,5.0625-4.7338867,8.15625-6.328125l1.0546875,1.0546875l0.703125-0.4921875l1.96875,0.9140625h1.3359375
		l0.703125-0.421875l0.6328125,0.421875h7.3828125v15.1875c-4.078125,0.5625-7.1948242,1.9931641-9.3515625,4.2890625
		c-2.1552734,2.2973633-3.234375,5.3208008-3.234375,9.0703125c0,5.0625,1.9931641,8.8486328,5.9765625,11.3554688
		c3.9848633,2.5083008,9.9614258,3.7617188,17.9296875,3.7617188c6.1875,0,11.1567383-0.9140625,14.90625-2.7421875h3.9375
		l11.390625,0.421875l0.6328125,1.40625l-0.6328125,0.421875v0.4921875h4.640625l0.703125-1.40625l-1.3359375-0.9140625
		l-2.0390625,0.9140625v-1.3359375h1.3359375c1.3603516,0,2.0390625-0.6083984,2.0390625-1.828125h0.6328125l2.0390625,1.828125
		c0.3271484,0,0.6083984-0.0229492,0.84375-0.0703125c-0.2353516,0.7978516-0.4921875,1.5712891-0.7734375,2.3203125h-0.0703125
		v0.140625c-0.2338867,0.6572266-0.4921875,1.3129883-0.7734375,1.96875l-0.5625-2.53125
		c-1.7807617,1.5009766-3.5615234,2.25-5.34375,2.25v0.9140625l0.6328125,0.4921875l-0.6328125,0.4921875
		c-0.8896484,0-1.3359375-0.4677734-1.3359375-1.40625h-0.703125l-2.0390625,2.3203125v0.421875l0.703125,0.4921875
		l-4.7109375,0.4921875h-8.015625v0.9140625h8.71875c2.671875,0,4.0078125,0.7504883,4.0078125,2.25h0.6328125l1.40625-0.9140625
		l2.671875,0.4921875v0.421875l-0.703125,0.4921875c-1.7807617,0-2.671875,0.3056641-2.671875,0.9140625v0.421875H125.296875z
		 M70.3828125,146.390625c3.6103516-1.6401367,7.734375-2.6245117,12.375-2.953125v1.96875
		c-1.7807617,0.1879883-2.671875,0.6328125-2.671875,1.3359375h-6.046875L70.3828125,146.390625z M103.2890625,145.828125v-2.53125
		c2.953125,0.2353516,5.7197266,0.7504883,8.296875,1.546875v0.0703125H106.875v0.9140625h-2.0390625v-0.9140625h-0.6328125
		v0.9140625H103.2890625z M103.2890625,159.5390625v-8.4375c0.5625,0.140625,1.3129883,0.2109375,2.25,0.2109375H106.875
		l0.6328125-0.421875l0.703125,0.421875h0.6328125l0.703125-0.421875L110.25,151.3125h9.984375v0.9140625h-1.3359375
		L120.9375,154.96875h-1.3359375l-0.703125-0.421875v0.421875c0,0.6572266,1.5712891,1.125,4.7109375,1.40625v0.4921875h-2.0390625
		v1.3359375h2.0390625v-0.9140625h0.703125V159.1875h-6.75l-2.671875-0.4921875L103.2890625,159.5390625z M111.65625,166.4296875
		c-2.1552734-1.4521484-4.9448242-2.4365234-8.3671875-2.953125V162.5625L103.5,162.84375l3.375-0.4921875h9.3515625
		l0.703125,0.4921875l0.6328125-0.4921875h6.046875v0.4921875h-2.0390625l0.703125,1.3359375v0.4921875H120.9375v0.9140625h2.671875
		v0.421875H112.21875L111.65625,166.4296875z M110.671875,188.578125c0.140625-0.0932617,0.2583008-0.1865234,0.3515625-0.28125
		C115.0083008,185.7197266,117,181.9931641,117,177.1171875c0-3.796875-1.1479492-6.8432617-3.4453125-9.140625
		c-0.1865234-0.1865234-0.3974609-0.3745117-0.6328125-0.5625c4.359375,0.0473633,6.7973633,0.3515625,7.3125,0.9140625v-0.9140625
		h2.0390625l-0.703125,0.421875l0.703125,0.4921875l-0.703125,0.4921875
		c1.1723633,4.2661133,2.0864258,6.3984375,2.7421875,6.3984375h2.671875v-0.421875h-1.3359375v-0.9140625l1.96875-0.4921875
		v2.7421875l-0.6328125-0.421875h-0.703125l-0.6328125,0.421875V176.625l0.6328125,0.421875v0.4921875h-6.046875
		l-0.6328125,0.421875v0.4921875l0.6328125,0.421875v0.4921875l-0.6328125,0.421875l0.6328125,0.4921875l0.703125-0.4921875
		l1.96875,0.4921875h0.703125v-0.9140625l4.0078125,0.421875V183.9375h-0.6328125
		c0-1.2182617-0.4448242-1.828125-1.3359375-1.828125v-0.4921875L124.3125,180.28125
		c-0.7490234,0-1.4291992,1.0791016-2.0390625,3.234375l2.671875,0.421875v0.4921875L124.3125,184.921875v0.421875h3.3046875
		L126.984375,186.75v0.9140625L127.6171875,189H120.9375l-2.0390625-0.9140625L117.5625,189h-0.6328125l-0.703125-0.421875
		H110.671875z M125.6484375,182.109375v0.9140625l0.6328125,0.4921875h-1.96875l-0.703125-1.40625l0.703125-0.4921875h0.6328125
		L125.6484375,182.109375z"/>
	<path id="XMLID_20_" class="st0" d="M37.546875,130.7109375h2.1796875v4.078125H37.546875V130.7109375z M62.015625,131.5546875
		v16.2421875H59.34375v-18.7734375l-2.1796875,0.84375H56.25c-2.2026367-4.78125-3.3046875-10.5927734-3.3046875-17.4375
		c0-10.6875,1.8525391-18.8789063,5.5546875-24.5742188C62.2036133,82.1601563,67.5473633,79.3125,74.53125,79.3125h43.453125
		c3.1884766,0,5.5668945-0.3271484,7.1367188-0.984375c1.5712891-0.6557617,2.7543945-1.7578125,3.5507813-3.3046875h3.4453125
		V96.328125c-1.3115234,0.703125-2.7651367,1.2426758-4.359375,1.6171875
		c-1.5927734,0.3759766-3.3046875,0.5869141-5.1328125,0.6328125c3.9848633,2.5786133,7.0205078,5.9536133,9.1054688,10.125
		c2.0849609,4.1728516,3.1289063,9.0244141,3.1289063,14.5546875c0,2.0634766-0.1650391,3.9848633-0.4921875,5.765625h-0.984375
		l-1.4765625,0.5625c-1.0776367-1.4995117-1.7333984-3.2573242-1.96875-5.2734375h-2.0390625v4.7109375H126.84375V124.3125
		l1.0546875-1.3359375H126.84375v-2.7421875H124.875v8.7890625h-1.0546875v-14.203125l-2.953125-4.0078125h-0.984375v4.0078125
		h0.984375l0.984375-1.3359375v4.078125l-4.0078125,2.671875v-6.75H115.875v15.609375l-0.984375,0.3515625v-17.296875h-2.0390625
		v17.296875l-1.1953125-0.421875h-2.1796875l-2.1796875,0.84375l-2.1796875-0.84375H102.9375l-2.1796875,0.84375H98.578125
		l-2.1796875-0.84375v-0.84375l-8.296875,1.0546875c-0.7963867-2.5771484-1.4291992-5.484375-1.8984375-8.71875
		c-0.3271484-2.109375-0.703125-4.8745117-1.125-8.296875c-1.125-8.6713867-3.6318359-13.0078125-7.5234375-13.0078125
		c-3.09375,0-5.3085938,0.9614258-6.6445313,2.8828125c-1.3359375,1.9228516-2.0039063,5.1328125-2.0039063,9.6328125
		c0,4.1254883,0.8208008,7.2895508,2.4609375,9.4921875c1.6416016,2.2041016,3.9848633,3.3046875,7.03125,3.3046875h1.125v4.5
		H76.78125v2.53125h-2.1796875v-2.53125H72.140625v9.5625c-0.703125,0.1865234-1.4291992,0.3745117-2.1796875,0.5625v-7.59375
		H68.0625v-2.53125h-4.359375v2.53125H62.015625z M68.0625,140.625h2.1796875v1.8984375
		C69.4931641,142.2880859,68.765625,142.03125,68.0625,141.75V140.625z M74.6015625,135.6328125H76.78125v5.765625h-2.1796875
		V135.6328125z M81.140625,143.9296875h2.1796875v3.3046875H81.140625V143.9296875z M95.5546875,131.625h2.1796875v6.609375
		h-2.1796875V131.625z M108.6328125,133.2421875H110.8125v4.1484375h-2.1796875V133.2421875z M111.09375,142.453125h2.1796875
		v13.21875H111.09375V142.453125z M115.171875,137.390625h2.1796875v4.921875h-2.1796875V137.390625z M117.84375,124.3125h0.984375
		v4.7109375h-0.984375V124.3125z M120.375,145.0546875v1.3359375h4.359375v-3.234375
		C123.4228516,143.9052734,121.9692383,144.5380859,120.375,145.0546875z M120.375,148.078125v12.375h4.359375v-12.375H120.375z
		 M132.890625,134.015625h2.671875v-4.9921875h-1.1953125C134.0385742,130.8056641,133.5463867,132.46875,132.890625,134.015625z"/>
	<path id="XMLID_34_" class="st0" d="M37.3359375,10.1953125V4.078125h2.8125v1.0546875l-1.40625,5.0625H37.3359375z
		 M53.5078125,20.1796875c0.0473633,4.78125,1.265625,8.9296875,3.65625,12.4453125
		c2.4853516,3.5629883,6.3525391,6.6796875,11.6015625,9.3515625H55.6875v18.984375h76.4296875V40.5h-0.28125v6.46875
		l-2.7421875,2.0390625V40.5h-1.40625v8.5078125l1.40625,0.984375h-5.5546875v-0.984375l1.40625-3.09375
		c-2.8125,0-4.21875-1.0073242-4.21875-3.0234375l-1.40625-1.0546875h-1.3359375v1.0546875l1.3359375,4.078125h-2.7421875v-4.078125
		h-1.40625l-1.40625,0.984375h-1.3359375l-1.40625-3.0234375L104.0625,42.890625l-1.40625-1.0546875
		c0,1.546875-2.3203125,2.5786133-6.9609375,3.09375V43.875l-1.3359375,1.0546875h-2.8125V40.5
		c-5.484375,0-9.6557617-1.3115234-12.515625-3.9375v0.2109375h-2.7421875V32.90625
		c-0.5151367-1.0302734-0.9370117-2.1552734-1.265625-3.375c-2.0620117-0.28125-3.9604492-1.2885742-5.6953125-3.0234375V16.875
		h-1.4765625l-1.3359375,7.59375l1.40625,1.0546875V27.5625h-2.7421875c0-1.3588867-2.3203125-2.0390625-6.9609375-2.0390625
		l-1.40625-8.15625h-1.40625l-1.3359375,3.0234375L53.5078125,20.1796875z M60.9609375,16.9453125H59.625V24.46875h1.3359375
		V16.9453125z M60.9609375,16.9453125V0h2.8125v16.9453125H60.9609375z M65.1796875,16.875l-1.40625,0.0703125V24.46875h1.40625
		V16.875z M70.734375,16.3125h1.3359375V8.15625H70.734375V16.3125z M74.8828125,16.3125h1.40625V8.15625h-1.40625V16.3125z
		 M74.8828125,24.46875h1.40625v-6.1171875h-1.40625V24.46875z M79.03125,29.6015625h1.40625V8.15625h-1.40625V29.6015625z
		 M83.25,31.640625h1.3359375v-6.1171875H83.25V31.640625z M85.9921875,39.796875h4.1484375v3.09375h-2.7421875
		L85.9921875,39.796875z M87.3984375,16.3125h1.40625V9.2109375h-1.40625V16.3125z M91.546875,16.3125h1.40625V2.0390625h-1.40625
		V16.3125z M94.359375,40.8515625h1.3359375v-7.171875H94.359375V40.8515625z M95.6953125,52.03125v-4.078125h1.40625
		l1.40625,4.078125H95.6953125z M98.5078125,42.890625h1.40625V0h-1.40625V42.890625z M99.9140625,47.953125v-2.0390625
		L105.46875,43.875l1.40625,1.0546875v0.984375l-2.8125,8.15625h-1.40625V51.046875l1.40625-4.078125l-1.40625,0.984375H99.9140625z
		 M106.875,16.3125h1.3359375V2.0390625H106.875V16.3125z M106.875,28.546875h1.3359375V24.46875H106.875V28.546875z
		 M115.171875,22.4296875h1.40625V8.15625c-1.8740234,0-2.8125,1.0317383-2.8125,3.09375L115.171875,22.4296875z
		 M115.171875,6.1171875h1.40625V0h-1.40625V6.1171875z M119.3203125,26.5078125h1.40625v-24.46875h-1.40625V26.5078125z
		 M119.3203125,32.6953125h1.40625V28.546875h-1.40625V32.6953125z"/>
</g>
</svg>
