<?xml version="1.0" encoding="utf-8"?>
<!-- Generator: Adobe Illustrator 19.0.0, SVG Export Plug-In . SVG Version: 6.00 Build 0)  -->
<svg version="1.1" id="Слой_1" xmlns="http://www.w3.org/2000/svg" xmlns:xlink="http://www.w3.org/1999/xlink" x="0px" y="0px"
	 viewBox="0 0 168.1855469 344.1074219" style="enable-background:new 0 0 168.1855469 344.1074219;" xml:space="preserve">
<style type="text/css">
	.st0{fill:#89BCDA;}
</style>
<g id="XMLID_1_">
	<path id="XMLID_55_" class="st0" d="M43.8730469,344.109375H1.8261719V234.4921875h42.046875V344.109375z M48.2324219,234.4921875
		h4.4296875l-0.2109375,109.265625h-4.4296875L48.2324219,234.4921875z M56.5292969,234.4921875h4.078125V281.25
		c0.3286133-0.4677734,0.6572266-0.9370117,0.984375-1.40625c4.5473633-5.8115234,10.9458008-8.9052734,19.1953125-9.28125
		v19.8984375c-3.234375,0.140625-5.7412109,1.3710938-7.5234375,3.6914063
		c-1.7807617,2.3203125-2.671875,5.5439453-2.671875,9.6679688c0,3.8916016,0.5869141,6.7851563,1.7578125,8.6835938
		c1.1723633,1.8984375,2.9301758,2.8476563,5.2734375,2.8476563c3.0478516,0,5.7426758-5.0854492,8.0859375-15.2578125
		c0.5166016-2.3432617,0.9384766-4.1943359,1.265625-5.5546875c2.390625-10.1708984,5.2734375-17.1210938,8.6484375-20.8476563
		s8.1333008-5.5898438,14.2734375-5.5898438c3.0478516,0,5.8129883,0.3759766,8.296875,1.125V291.375
		c-1.265625-1.7807617-3.0234375-2.671875-5.2734375-2.671875c-3.4682617,0-6.0698242,4.078125-7.8046875,12.234375
		c-0.703125,3.3291016-1.3115234,5.9765625-1.828125,7.9453125c-2.53125,9.9384766-5.5302734,16.8398438-9,20.7070313
		c-3.4682617,3.8671875-8.15625,5.8007813-14.0625,5.8007813c-7.8276367,0-14.0380859-2.8354492-18.6328125-8.5078125
		c-0.3271484-0.421875-0.6557617-0.8666992-0.984375-1.3359375v18.4921875h-4.078125V234.4921875z M118.1933594,336.515625
		c-2.53125,0.7504883-5.2963867,1.125-8.296875,1.125h-0.84375V317.25c3.8916016-0.1865234,6.7744141-1.5927734,8.6484375-4.21875
		c0.1879883-0.2338867,0.3515625-0.4677734,0.4921875-0.703125V336.515625z"/>
	<path id="XMLID_60_" class="st0" d="M59.2011719,231.9609375h-30.65625v24.3984375h7.1015625v9.6328125H0.3496094v-103.5h35.578125
		L35.6464844,182.25h-7.1015625v36.421875h23.2734375c0.4692383,1.9228516,1.0791016,3.7265625,1.828125,5.4140625
		C55.0068359,227.0390625,56.8579102,229.6650391,59.2011719,231.9609375z M20.6699219,194.5546875h5.5546875v-6.46875h-5.5546875
		V194.5546875z M30.0917969,194.625h5.5546875v-6.46875h-5.5546875V194.625z M30.0917969,201.09375v6.46875h5.5546875v-6.46875
		H30.0917969z M30.3730469,254.3203125h39.7265625v-4.1484375h5.2734375v4.1484375h58.5703125V234H88.5917969
		c-4.9677734,0-8.9052734-1.40625-11.8125-4.21875c-0.5151367-0.5151367-0.984375-1.0546875-1.40625-1.6171875v8.15625h-5.2734375
		v-14.0625h2.7421875c-0.2338867-1.2182617-0.3515625-2.53125-0.3515625-3.9375c0-4.5,1.2075195-7.6166992,3.6210938-9.3515625
		c2.4150391-1.7333984,8.3564453-2.6015625,17.8242188-2.6015625h40.0078125V186.046875H82.9667969
		c-5.484375,0-9.4677734,0.3164063-11.953125,0.9492188c-2.4838867,0.6328125-4.6865234,1.7226563-6.609375,3.2695313
		c-2.8583984,2.25-5.0625,5.1923828-6.609375,8.8242188c-1.546875,3.6333008-2.3203125,7.6992188-2.3203125,12.1992188
		c0,2.6259766,0.2583008,5.0869141,0.7734375,7.3828125h9.0703125v13.2890625h-1.6875
		c0.7504883,0.703125,1.5239258,1.3833008,2.3203125,2.0390625h-35.578125V254.3203125z M70.0996094,208.125v-14.0625h5.2734375
		v14.0625H70.0996094z"/>
	<path id="XMLID_67_" class="st0" d="M85.6386719,94.2890625c3.09375-0.5151367,6.4228516-0.7734375,9.984375-0.7734375
		c12.7509766,0,22.7583008,3.4575195,30.0234375,10.3710938c7.2666016,6.9150391,10.8984375,16.3720703,10.8984375,28.3710938
		c0,12.0478516-3.6318359,21.515625-10.8984375,28.40625C118.3813477,167.5546875,108.3740234,171,95.6230469,171
		c-4.078125,0-7.875-0.3515625-11.390625-1.0546875l-0.28125,1.6875l0.28125,1.8984375l-0.5625,2.6015625l-1.40625,10.96875
		l-0.5625,3.4453125l0.28125,3.375v0.7734375l-0.28125,2.25l0.28125,0.421875v0.3515625l-0.28125,4.1484375v1.125l0.28125,1.8984375
		l-0.28125,0.421875h-1.125v-0.421875l0.28125-1.8984375h-0.5625v-2.6015625h-0.28125v3.796875l0.28125,1.4765625
		c-0.28125,1.4995117-1.0302734,2.25-2.25,2.25l-0.28125,1.546875h-0.28125c-0.3745117,0-0.5625-0.3759766-0.5625-1.125
		l-0.28125-0.421875h-0.28125V208.6875l0.28125,1.8984375l-0.28125,0.421875h-0.28125
		c-0.9370117-2.0634766-1.40625-3.5859375-1.40625-4.5703125v-9.4921875l-0.28125-4.1484375l0.5625-2.671875l-0.28125-1.4765625
		l0.4921875-10.96875c0.0473633-0.4692383,0.0703125-0.984375,0.0703125-1.546875l0.28125-1.828125v-2.3203125l0.2109375-4.7109375
		c-3.796875-1.6401367-7.1474609-3.8427734-10.0546875-6.609375c-7.2651367-6.890625-10.8984375-16.3583984-10.8984375-28.40625
		c0-11.9990234,3.6333008-21.4682617,10.8984375-28.40625c3.1884766-2.9990234,6.9150391-5.3666992,11.1796875-7.1015625
		l-1.0546875-9.2109375v-0.703125l0.84375-6.046875l-0.5625-14.8359375l0.28125-1.125l-0.5625-6.8203125h0.28125l-0.28125-0.3515625
		v-3.0234375l0.28125-0.3515625c-0.5625-2.53125-0.84375-4.6865234-0.84375-6.46875c0-2.0620117,0.5625-3.7021484,1.6875-4.921875
		h1.125l0.5625,0.7734375l0.84375-0.421875l2.53125,1.546875l0.28125-0.3515625h0.84375
		c0.3759766,0,0.7504883,0.8681641,1.125,2.6015625l-0.28125,9.4921875c-0.7490234,0.421875-1.125,0.9140625-1.125,1.4765625
		h-0.5625c0-0.984375-0.1865234-1.4765625-0.5625-1.4765625c0,0.984375-0.5625,1.4765625-1.6875,1.4765625V58.78125h-0.28125
		l0.5625,4.1484375l0.28125-0.3515625c1.125,0,1.6875,0.6328125,1.6875,1.8984375v0.3515625h0.28125v-1.8984375l1.6875,0.421875
		V64.125l-0.28125,0.3515625l0.5625,6.046875L84.2324219,70.875v0.421875l0.28125,0.3515625l-0.28125,1.8984375v1.125
		l0.28125,1.8984375h-0.28125l0.28125,0.421875v0.703125l-0.28125,5.6953125L85.6386719,94.2890625z M75.8652344,143.4375
		c-0.2338867-4.9677734-0.6328125-9.2109375-1.1953125-12.7265625l-0.28125-7.5234375v-0.0703125
		c-1.5927734,2.53125-2.390625,5.5791016-2.390625,9.140625C71.9980469,136.8051758,73.2880859,140.5317383,75.8652344,143.4375z
		 M81.0683594,117.2109375c0.5166016,0.84375,1.3833008,1.4306641,2.6015625,1.7578125l0.5625,2.3203125
		c-0.7490234,0.2353516-1.125,0.984375-1.125,2.25v3.375c0,1.9228516,0.5625,3.3291016,1.6875,4.21875v2.25l1.125,9.0703125
		l-0.5625,2.671875h-0.28125l-0.28125-0.3515625h-0.28125l-0.28125,1.8984375v2.0390625
		c3.234375,1.0317383,7.03125,1.546875,11.390625,1.546875c7.59375,0,13.4541016-1.5576172,17.578125-4.6757813
		c4.1254883-3.1166992,6.1875-7.5585938,6.1875-13.3242188c0-5.6708984-2.0620117-10.0654297-6.1875-13.1835938
		c-4.1240234-3.1166992-9.984375-4.6757813-17.578125-4.6757813
		C89.7167969,114.3984375,84.8652344,115.3369141,81.0683594,117.2109375z"/>
	<path id="XMLID_71_" class="st0" d="M54.9121094,36.703125c0,4.921875,1.0317383,9.2001953,3.09375,12.8320313
		c2.0634766,3.6333008,5.34375,6.9257813,9.84375,9.8789063H57.5136719V78.890625h43.171875l9.3515625,16.3828125
		L-0.0019531,95.203125V17.0859375h62.4375C57.4204102,22.4296875,54.9121094,28.96875,54.9121094,36.703125z
		 M100.6855469,25.5234375c4.921875,0.5166016,8.9541016,1.9228516,12.09375,4.21875
		c4.0322266,2.953125,6.046875,7.0083008,6.046875,12.1640625c0,5.4384766-1.96875,9.6328125-5.90625,12.5859375
		c-3.09375,2.3447266-7.171875,3.7739258-12.234375,4.2890625v20.109375h63.9140625V58.9921875h-40.1484375
		c3.9375-2.53125,6.9379883-5.7060547,9-9.5273438c2.0620117-3.8198242,3.09375-8.1669922,3.09375-13.0429688
		c0-9.2338867-3.8198242-16.7802734-11.4609375-22.640625c-6.46875-4.9677734-14.6005859-7.8276367-24.3984375-8.578125V25.5234375z
		"/>
</g>
</svg>
